@startuml Primero
class Proveedor{
	-rut: string 
	-nombre: string 
	-direccion: Direccion 
	-teléfono: int 
	-paginaWeb: string 
	+getNombre(): string 
}
class Cliente{
	-nombre: string 
	-rut: string 
	-telefonos: int[]
	-direccion: Direccion
	+getNombre(): string
}	
class Direccion{
	-calle: int 
	-numero: int 
	-comuna: int 
	-ciudad: string 
}
class Producto{
	-id: int 
	-nombre: string 
	-precio: double 
	-stock: int 
	-proveedor: Proveedor 
}
class Categoria{
	-id: int 
	-productos: Producto[]
	-nombre: string 
	-descripcion: string 
	
}
class Venta{
	-id: int 
	-fecha: string 
	-cliente: Cliente 
	-montoFinal: double
	-productos: DetallesVentas[]
	-calcularMontoFinal(): double
	+generarFactura(): void
	+agregarProducto(): void 
}
class DetallesVenta{
	-producto: Producto
	-precio: double
	-cantidad: int
	-descuento: double
	+calcularPrecioFinal(): double
}

Proveedor o-- Direccion
Cliente o-- Direccion
Producto *-- Proveedor
Venta *-- DetallesVenta
Producto --* Categoría
DetallesVenta *-- Producto
Venta *-- Cliente
@enduml
